<?xml version="1.0" encoding="utf-8"?>
<!-- Generator: Adobe Illustrator 19.0.0, SVG Export Plug-In . SVG Version: 6.00 Build 0)  -->
<svg version="1.1" id="Layer_1" xmlns="http://www.w3.org/2000/svg" xmlns:xlink="http://www.w3.org/1999/xlink" x="0px" y="0px"
	 viewBox="4823 -1172 11611.6 3136" style="enable-background:new 4823 -1172 11611.6 3136;" xml:space="preserve">
<style type="text/css">
	.st0{fill:#965448;}
	.st1{fill:#7F3D3D;}
	.st2{fill:#650000;}
	.st3{fill:#FC3C53;}
	.st4{fill:#D82140;}
	.st5{fill:#FFEB52;}
	.st6{fill:#FEBD1C;}
	.st7{opacity:0.5;}
	.st8{fill:#FFFFFF;}
	.st9{fill:none;stroke:#650000;stroke-width:33.8175;stroke-linecap:round;stroke-linejoin:round;stroke-miterlimit:10;}
	.st10{font-family:'ArialMT';}
	.st11{font-size:48px;}
	.st12{fill:#D8E022;}
	.st13{font-size:767.0413px;}
	.st14{fill:#E2E419;}
	.st15{font-size:586.2479px;}
</style>
<g>
	<g>
		<g>
			<g>
				<path class="st0" d="M7114.1-54.2L6974,510.4l-102.1,1.4l-502.4,7l-612.9-55l-372-291.7c-10-20-17.7-41.2-22.2-63.7
					c-6.8-33.9-4-69,6.7-101.9l86.3-265.8c16.4-50.5,57.9-89.2,109.7-100.9c0.4-0.1,0.9-0.2,1.3-0.3c-3.7-34.2-5.1-67.8-4.1-100.6
					c1-32.7,7.9-64.9,20.5-95.1l109.7-262.5c17.1-40.8,53.9-70.9,97.7-77.1c2.1-0.3,4.1-0.5,6.3-0.8c9.8-1,19.8-0.7,29.7,0.2
					l381.7,34c23.4,2.1,45.2,12.7,61.2,29.8c25.3,27.1,47.5,54.8,66.8,83.2c0.8-2.4,1.6-4.7,2.4-7c16.6-44.4,62.2-71,109.3-65.1
					l97.4,12.2l141.8,17.7c-13.5,13.5-19.6,29.8-19.9,47c-0.4,26,12.3,54.4,32.5,79.8c-96,90.9-12.7,219.8,198.7,207.1
					c2.7,1.7,5.3,3.4,7.9,5.2c31.1,20.9,57.9,47.3,79.6,77.5c13.7,19,25.5,39.6,35,61.1l88.3,198.6
					C7117.3-96,7119.2-74.5,7114.1-54.2z"/>
			</g>
		</g>
	</g>
	<g>
		<g>
			<g>
				<path class="st1" d="M6255.6-453.1c-2,25.9-2.2,56.1,17.8,72.7c6.8,5.6,15.2,8.9,23.5,11.9c86.2,31.2,177.5,45.4,268.2,59.3
					c28.4,4.4,56.9,8.8,85.3,13.1c17.8,2.7,35.6,5.5,53.4,8.2c29.4,4.5,58.8,9.1,88.3,13.6c10.4,1.6,21.3,3.2,31.3,0
					c22.3-7,31.3-33.2,37-55.9c9.4-37,18.8-74.1,28.2-111.1c33.4,7.9,63.7,28.8,82.8,57.3c5,7.5,7,15.9,7,15.9s3.7,11.6,4.1,24.7
					c0.5,16.4-60.1,223-148.3,504c-32.2-17.4-62.7-38-90.7-61.5c-1.7-1.4-3.4-2.9-4-5c-0.8-2.8,0.6-5.6,2-8.2
					c31.9-59.2,54.3-123.5,66-189.7c2.1-11.7,3.8-24.1,0-35.4c-7.1-21.2-30.6-31.6-51.9-38.6c-34.3-11.4-69.3-20.7-104.6-28.6
					c-68.1-15.3-137.2-25.4-206.2-35.5c-28.4-4.2-56.8-8.3-85.3-12.5c-34.6-5.1-71.1-9.9-103.6,3.1c-8.6-19.9-20.7-55-20.9-100.3
					C6234.9-397.6,6247-433.2,6255.6-453.1z"/>
			</g>
		</g>
	</g>
	<g>
		<g>
			<g>
				<path class="st1" d="M6121.8,92.6c-7.9,12.5-3,30,7.6,40.4s25.4,15,39.9,18.2c17.1,3.7,34.6,5.8,52,6.2
					c12,0.3,24.9,0.1,34.8,6.9c-33.7,9.9-67.4,19.8-101.1,29.7c-12.7,3.7-28.5,6.7-37.5-3c-2.8-3.1-4.5-7-5.8-11
					c-9.1-26.6-6.1-57.2,8.2-81.4L6121.8,92.6z"/>
			</g>
		</g>
	</g>
	<g>
		<g>
			<g>
				<path class="st1" d="M7114.1-54.2L6974,510.4l-102.1,1.4c-7.8-10.7-14.9-21.9-21.4-33.4c-51.7-91.6-63.5-205-31.7-305.4l7.9-3.3
					c1.2-3.8,2.4-7.7,3.6-11.5c17.2-55.3,34-110.7,50.5-166.1c36.4-122,71.3-244.3,104.7-367.2c13.7,19,25.5,39.6,35,61.1
					l88.3,198.6C7117.3-96,7119.2-74.5,7114.1-54.2z"/>
			</g>
		</g>
	</g>
	<g>
		<g>
			<g>
				<path class="st1" d="M5586.6-550.9c-12.6,19.9-4.1,47.7,13,63.8c17.1,16.2,40.6,23.3,63.3,29.5
					c116.8,31.3,237.7,47.1,358.6,46.8c8.8,0,17.8-0.2,26.2-2.9c10.3-3.3,19-10.3,26.2-18.3c13.8-15.4,22.4-34.6,30.8-53.5
					c33.7-75.8,67.3-151.5,101-227.3c12.2-27.6,24.8-57.5,18.4-86.9c-5.7-26.7-28-49.2-54.7-55.1c61.1,6.4,107.9,55.3,148.9,101.1
					c3.8,4.2,7.7,8.8,8.5,14.4c0.6,4.6-1.1,9.2-2.7,13.6c-29.7,78.2-59.2,157-75.9,239s-20.1,168,2.3,248.7
					c-39.1,15.9-59.3,58.2-76.1,96.9c-23.2,53.6-46.5,107.7-57.3,165c-10.7,57.4-7.9,119.1,19.3,170.7c-29.5-0.1-53.8,23.6-82.6,30
					c-10.6,2.4-21.5,2.3-32.3,3.1c-19.1,1.4-38,5.3-56.8,8.7c-153.3,27.9-312.3,23.4-463.8-12.9c-31.3-7.5-63-16.7-89.1-35.5
					c-26.1-18.8-46-49-44.5-81.2c0.5-10.2,4.2-21.8,13.6-25.8c5.7-2.4,12.2-1.5,18.3-0.6c20.4,3.1,40.7,6.1,61.1,9.2
					c119.8,18.1,239.6,36.2,359.5,54.2c5.2,0.8,10.7,1.7,15,4.8c14.1,10.5,10.1,40.8,27.7,41.4c53.6-91.5,98.9-187.8,135.2-287.5
					c11-30.1,21.2-61,22.5-93c1.3-32-7.3-65.7-29.6-88.7c-28.3-29.2-72-35.8-112.4-40.8c-94-11.7-188.1-23.4-282.1-35
					c-13.3-1.7-28.2-4.2-36-15.1c-5.7-7.9-6.2-18.4-6-28.2c0.8-50.1,11.7-100.1,32-146"/>
			</g>
		</g>
	</g>
	<g>
		<g>
			<g>
				<path class="st2" d="M6137,227.2c-5.3,0-10.5-2.5-13.8-7.1c-1.4-2-2.8-4-4.1-6c-25.3-38.7-32.1-87.3-18.7-133.3l65.3-225.4
					c12.3-42.6,38.1-79.4,72.6-103.7c0.3-0.2,0.7-0.5,1-0.7c-9-28.1-15.1-56.5-18.2-84.6c-4.2-37.4-1.2-75.4,8.7-113.1
					c28.4-107.9,62.1-229.6,95.7-314.7c3.4-8.7,13.2-13,21.9-9.5c8.7,3.4,12.9,13.3,9.5,21.9c-33.1,83.9-67.9,210.3-94.4,310.9
					c-8.9,33.6-11.5,67.5-7.8,100.7c3.3,29.8,10.3,60.1,20.8,89.9c2.7,7.6-0.4,16-7.3,20.1c-3.5,2.1-7,4.4-10.4,6.8
					c-28.3,19.9-49.4,50.3-59.6,85.5l-65.3,225.4c-10.6,36.6-5.3,75,14.5,105.4c1.1,1.6,2.2,3.3,3.4,4.9c5.4,7.6,3.6,18.2-4,23.6
					C6143.8,226.2,6140.4,227.2,6137,227.2z"/>
			</g>
		</g>
	</g>
	<g>
		<g>
			<g>
				<path class="st2" d="M6369.5,544.2c-0.5,0-1,0-1.5-0.1l-613-54.9c-3.3-0.3-6.4-1.5-8.9-3.5l-372-291.7c-2-1.5-3.6-3.5-4.7-5.8
					c-11.3-22.7-19.1-45-23.7-67.9c-7.1-35.7-4.6-73.9,7.2-110.4l86.3-265.9c16.9-51.9,57.9-92.5,108.8-108.6
					c-2.7-30-3.6-59.7-2.8-88.4c1.1-35,8.4-69,21.8-101.1l109.7-262.5c19.6-47,62.1-80.5,110.9-87.4c2.3-0.3,4.6-0.6,6.9-0.8
					c10-1,20.7-1,32.8,0.1l381.7,34c27.6,2.5,53.2,14.9,72.1,35.1c18.5,19.8,35.7,40.3,51.2,61c24.1-39.1,69.3-61.2,117-55.2
					l239.2,29.9c6.4,0.8,11.8,5.2,13.9,11.3s0.5,12.9-4,17.4c-28.5,28.5-11.5,72.5,13.9,104.3c5.5,6.9,4.8,16.8-1.6,22.8
					c-31.8,30.1-42.1,65.6-28.2,97.5c18.2,41.9,85.2,88.2,214.3,80.4c3.5-0.2,7.1,0.7,10.1,2.6c2.8,1.8,5.6,3.6,8.3,5.4
					c52.2,35.1,93.9,85.5,120.7,145.8l88.3,198.6c10,22.5,12.2,48.1,6.3,72L6990.4,523c-1.9,7.5-8.5,12.7-16.2,12.8l-604.5,8.5
					C6369.6,544.2,6369.5,544.2,6369.5,544.2z M6974,518.9L6974,518.9L6974,518.9z M5763,456l607.1,54.4l590.6-8.3l137-552
					c4.1-16.6,2.6-34.4-4.4-50.1L7005-298.5c-24.2-54.5-61.8-99.9-108.7-131.5c-1-0.7-2-1.4-3-2c-142.7,7.1-218.5-47.3-241.8-101
					c-17.8-41-8.2-86.8,25.5-124.7c-27.6-39.9-34.6-80-20.1-112l-211.7-26.5c-39.9-5-77.5,17.3-91.3,54.3c-0.7,2-1.5,4-2.1,6.1
					c-1.9,6.2-7.3,10.7-13.7,11.7c-6.4,0.9-12.8-1.9-16.5-7.2c-18.7-27.6-40.6-54.9-65.1-81.1c-13.2-14.1-31.1-22.8-50.4-24.6
					l-381.7-34c-10-0.9-18.7-0.9-26.5-0.2c-1.9,0.2-3.7,0.4-5.5,0.7c-37,5.2-69.4,30.9-84.5,66.9l-109.6,262.5
					c-11.8,28.2-18.3,58.2-19.2,89.1c-1,31.8,0.4,64.8,4,98.2c0.9,8.6-4.8,16.5-13.2,18.3l-1.2,0.3c-45.4,10.2-82.7,44.5-97.3,89.6
					l-86.3,265.9c-10.1,31-12.2,63.3-6.2,93.3c3.8,18.9,10,37.3,19.1,56.1L5763,456z"/>
			</g>
		</g>
	</g>
	<g>
		<g>
			<g>
				<g>
					<path class="st3" d="M6989.6,491.9c-72.1,329.3-162.8,672.1-268.7,1026c-38.5,128.5-166.8,208.6-299.1,186.4
						c-367.2-61.5-730-140.8-1088.5-237.1c-40.8-11-74.6-39.5-92.7-77.8c-42.4-89.4-95.3-165-133.2-233.2
						c-10.1-18.2-18.3-37.3-24.3-56.9c-18.6-59.7-18.3-124.3,1.6-184.6l226.9-687.9l6.5-19.8c6.7-20.2,26.3-33.4,47.5-31.7
						c23.7,1.8,53,11.8,85.7,24.6c167.9,65.7,351.4,83.6,527.9,46.7C6250.3,190,6463,50.8,6730.3,86.8c33.4,4.5,63.6,22.4,83.5,49.6
						c1.6,2.2,3.2,4.4,4.8,6.6l0,0c3.7,5.1,7.4,10.2,11.1,15.4c55.8,78.3,105.9,159.7,148.7,245.2
						C6992.1,431,6996.1,462.1,6989.6,491.9z"/>
				</g>
			</g>
		</g>
		<g>
			<g>
				<g>
					<path class="st4" d="M6989.6,491.9c-72.1,329.3-162.8,672.1-268.7,1026c-38.5,128.5-166.8,208.6-299.1,186.4
						c-367.2-61.5-730-140.8-1088.5-237.1c-40.8-11-74.6-39.5-92.7-77.8c-42.4-89.4-95.3-165-133.2-233.2
						c-10.1-18.2-18.3-37.3-24.3-56.9c372,107.6,821.4,216.9,1295.2,268c53,5.7,104.3-21.4,128.9-68.8
						c122.9-237,211.5-682,322.6-1140.1c55.8,78.3,105.9,159.7,148.7,245.2C6992.1,431,6996.1,462.1,6989.6,491.9z"/>
				</g>
			</g>
		</g>
		<g>
			<g>
				<g>
					<path class="st5" d="M6074.6,744.2l7.4-3.3c14.3,13.7,29,27.6,46.8,36.1c17.9,8.5,39.9,10.9,57.2,1.2
						c8.1-4.5,14.6-11.3,21-18.1c169.6-180,299-394.7,469-574.1c-96.7,342.3-191.4,663.9-282.8,949c-9.9,31-41,50.1-73.3,45.1
						c-389.1-61-753.4-130-1077-212.5c-41.9-10.7-66.6-53.9-54.6-95.4c58-200.5,121-391,190.3-569.1c13.6,4.3,26.8,11.5,39.4,18.6
						c31.8,18,63.6,35.9,95.4,53.8c-26.6-44.3-61.9-83.3-103.2-114.3l661.4,128.6l617.9-251.7c-0.1,0.3-0.2,0.5-0.2,0.8
						c-7.9,4.4-15.6,9.3-22.7,14.2c-154.8,106.3-273.5,255.9-396,398.2C6210.5,621.1,6148.5,689.8,6074.6,744.2z"/>
				</g>
			</g>
		</g>
		<g>
			<g>
				<g>
					<path class="st6" d="M5513.3,375.6c-31.8-17.9-63.6-35.8-95.4-53.8c-12.5-7.1-25.7-14.2-39.4-18.6c5.8-15,11.7-29.8,17.6-44.6
						l13.9,2.7C5451.4,292.3,5486.7,331.3,5513.3,375.6z"/>
				</g>
			</g>
		</g>
		<g>
			<g>
				<g>
					<path class="st4" d="M5410.1,261.3l-13.9-2.7c-5.9,14.8-11.8,29.7-17.6,44.6c-11.2-3.6-22.5-5.2-34.1-3.3
						c-20.2,3.3-37.1,16.9-52.3,30.6l-4.9-6.8c4.7-32.5,13.1-64.5,24.8-95.2c2.3-6,5.7-12.9,12-14.1c3.9-0.8,7.8,0.8,11.4,2.5
						C5361.9,229,5386.9,243.9,5410.1,261.3z"/>
				</g>
			</g>
		</g>
		<g>
			<g>
				<g>
					<path class="st6" d="M6689.2,139.1c-4.4,15.7-8.9,31.4-13.3,47l0,0c-170,179.5-299.5,394.2-469,574.1
						c-6.3,6.7-12.9,13.5-21,18.1c-17.2,9.6-39.3,7.3-57.2-1.2c-17.9-8.5-32.5-22.4-46.8-36.1l-7.4,3.3
						c73.9-54.4,135.9-123.2,195.8-192.8c122.6-142.2,241.2-291.9,396-398.2C6673.6,148.4,6681.3,143.5,6689.2,139.1z"/>
				</g>
			</g>
		</g>
		<g>
			<g>
				<g>
					<path class="st4" d="M6784.6,126.6c-20.7,3.2-41.8,6.6-60.2,16.6c-14.9,8.2-27.2,20.5-39,32.8c-3.2,3.3-6.4,6.7-9.6,10.1
						c4.4-15.6,8.8-31.3,13.3-47C6719.8,121.9,6754.6,111,6784.6,126.6z"/>
				</g>
			</g>
		</g>
		<g>
			<g>
				<g>
					<path class="st2" d="M6465.8,1724.8c-15.5,0-31.1-1.3-46.8-3.9c-363.2-60.9-729.9-140.8-1090.1-237.5
						c-45.5-12.2-83.2-43.9-103.6-86.9c-26.9-56.9-57.7-107.2-87.4-155.9c-16.3-26.7-31.7-51.8-45.3-76.4
						c-43.2-77.5-51.9-170.5-24-255.1L5302,201.6c9.2-27.7,35.9-45.5,64.9-43.3c27.1,2.1,59.6,13.6,90.5,25.8
						c168,65.7,347.2,81.6,518.3,45.9c92.8-19.4,179.3-48.8,263-77.2c162-55,315-107,493.8-82.9c37.8,5.1,72.4,25.6,94.9,56.4
						c1.7,2.3,3.2,4.3,4.6,6.3c0.1,0.1,0.2,0.3,0.3,0.4c63.3,87,117.5,175.5,161.2,263c15.3,30.8,19.8,66.1,12.5,99.4l0,0
						c-69.4,317.2-159.9,662.8-269,1027.2C6700.8,1644,6588.8,1724.8,6465.8,1724.8z M5362,192c-12.6,0-23.8,8.1-27.9,20.2
						l-6.5,19.8l-226.9,687.9c-25,75.6-17.1,158.7,21.5,228c13.3,23.9,28.5,48.8,44.6,75.2c28.8,47.1,61.4,100.5,89.1,159
						c16.1,34,45.9,59,81.8,68.7c359.1,96.4,724.8,176.1,1086.9,236.8c123.7,20.7,244.1-54.3,280.1-174.6
						c108.9-363.6,199.2-708.4,268.4-1024.7l0,0c5.6-25.8,2.2-53.2-9.7-77.1c-43.4-86.9-95.1-171.2-158-257.8
						c-0.2-0.2-0.3-0.4-0.4-0.6c-1.5-2.1-3-4.1-4.4-6.1c-17.4-23.8-43.7-39.4-72.4-43.2c-170.9-23-320.3,27.7-478.4,81.4
						c-84.7,28.7-172.2,58.5-267,78.3c-177.6,37.1-363.4,20.6-537.6-47.5c-27.2-10.7-58-21.8-80.8-23.5
						C5363.5,192,5362.8,192,5362,192z M6989.6,491.9L6989.6,491.9L6989.6,491.9z"/>
				</g>
			</g>
		</g>
		<g>
			<g>
				<g>
					<path class="st3" d="M6818.6,143c-178-145-519.6,456.3-756.2,602.4c-20,12.4-45.5,12-65.2-1
						C5405.6,353,5404.1,198,5311.5,226.7l0,0l6.5-19.8c6.7-20.2,26.3-33.4,47.5-31.7c23.7,1.8,53,11.8,85.7,24.6
						c167.9,65.7,351.4,83.6,527.9,46.7c271.1-56.6,483.8-195.8,751.1-159.8c33.4,4.5,63.6,22.4,83.5,49.6
						C6815.4,138.6,6817,140.8,6818.6,143z"/>
				</g>
			</g>
		</g>
		<g class="st7">
			<g>
				<g>
					<path class="st8" d="M5334,223.5c9-7.3,20.6-11.2,32.7-10.2c23.7,1.8,53,11.8,85.7,24.6c167.9,65.7,351.4,83.6,527.9,46.7
						c269.8-56.3,481.7-194.5,747.2-160.3c33.5-8.1,64.2-3.2,91.1,18.7c-1.6-2.2-3.2-4.4-4.8-6.6c-20-27.3-50.1-45.1-83.5-49.6
						c-267.3-36-480,103.2-751.1,159.8c-176.6,36.9-360,19-527.9-46.7c-32.7-12.8-62-22.8-85.7-24.6c-21.2-1.6-40.8,11.5-47.5,31.7
						l-6.5,19.8l0,0C5319.6,224.3,5326.9,223.2,5334,223.5z"/>
				</g>
			</g>
		</g>
		<g>
			<g>
				<g>
					<path class="st2" d="M6030.6,771.3c-14.9,0-29.8-4.3-42.7-12.8c-332.8-220.2-481.2-367.5-561-446.6
						c-64.2-63.7-80.4-78.3-110.3-69.1c-5.1,1.6-10.7,0.6-15-2.5c-4.3-3.2-6.9-8.2-6.9-13.6c0-1.8,0.3-3.6,0.8-5.3l6.5-19.8
						c9.2-27.7,35.9-45.5,64.9-43.3c27.1,2.1,59.6,13.6,90.5,25.8c168,65.7,347.2,81.6,518.3,45.9c92.8-19.4,179.3-48.8,263-77.2
						c162-55,315-107,493.8-82.9c37.8,5.1,72.4,25.6,94.9,56.4c1.8,2.5,3.4,4.6,4.9,6.8c4.9,6.9,4,16.4-2.2,22.2
						c-6.2,5.8-15.7,6.1-22.3,0.8c-98.6-80.4-270.5,116.9-436.7,307.6c-102.8,118-209.1,240-300,296.1
						C6058.8,767.5,6044.7,771.3,6030.6,771.3z M5336.6,206.6c34.5,2.4,63.5,31.2,114.1,81.3c78.9,78.3,225.8,224,555.8,442.4
						c14.1,9.3,32.5,9.6,47,0.7c86.5-53.4,191.1-173.4,292.2-289.5c137.1-157.3,277.8-318.8,391.9-336.3c-3.2-0.7-6.4-1.3-9.6-1.8
						c-170.9-23-320.3,27.7-478.4,81.4c-84.7,28.7-172.2,58.5-267,78.3c-177.6,37.1-363.4,20.6-537.6-47.5
						c-27.2-10.7-58-21.8-80.8-23.5C5352.8,191.2,5342.2,197,5336.6,206.6z"/>
				</g>
			</g>
		</g>
		<g>
			<g>
				<g>
					<path class="st2" d="M5118.2,1026.1c11,9.5,20.6,15.8,30.7,20.9c5,2.5,10.2,4.7,15.5,6.2c2.7,0.8,5.4,1.3,8.1,1.7l9.7,1.4
						c26.4,3.4,52.4,7.9,78.4,12.4c51.9,9.5,103.6,19.7,155.1,30.3l77.3,16l77.1,16.5l154.2,32.9c205.5,43.8,411.2,86.5,618.3,119.2
						c1.6,0.2,3.3,0.6,4.8,0.7l4.1,0.5c2.8,0.4,5.5,0.4,8.3,0.5c5.5,0.2,11.1-0.3,16.6-1.2c10.9-1.8,21.6-5.4,31.2-10.9
						c9.7-5.5,18.3-12.6,25.5-21.1c1.8-2.1,3.6-4.2,5.1-6.6l2.4-3.4l2.1-3.6c1.5-2.3,2.7-4.8,3.8-7.4c0.6-1.3,1.2-2.4,1.8-3.9
						l1.8-4.5l14.3-36.1l13.3-36.7c4.6-12.2,8.5-24.7,12.7-37c4.1-12.4,8.4-24.7,12.3-37.2c32-99.7,60.8-200.6,88.8-301.8
						c28.5-101.1,55.3-202.7,83.2-304.1l41.5-152.2c7.1-25.3,13.6-50.8,21.3-76c8-25.1,17.1-49.9,29.4-73.8
						c-1.1,26.9-5.4,52.9-10.7,78.7c-5.5,25.7-12.3,51.1-18.5,76.7l-37.6,153.2c-24.8,102.2-50.9,204.1-77.5,305.9
						c-27.1,101.7-55.2,203.2-87.1,303.9c-3.9,12.6-8.2,25.1-12.4,37.7c-4.3,12.5-8.2,25.1-12.8,37.6l-13.5,37.4l-14.7,37.2
						l-1.8,4.6c-0.6,1.6-1.5,3.4-2.3,5.1c-1.6,3.5-3.2,6.9-5.2,10.1l-2.9,4.9l-3.3,4.7c-2.1,3.2-4.5,6.1-7,9
						c-9.8,11.6-21.7,21.5-34.9,29c-13.2,7.5-27.8,12.5-42.8,14.9c-7.5,1.2-15.1,1.8-22.7,1.6c-3.8-0.1-7.6-0.2-11.4-0.7l-5.7-0.7
						c-1.8-0.2-3.3-0.5-5-0.8c-104.1-16.6-207.7-35.9-311-56.3c-103.2-20.6-206.3-42.1-308.9-65.3l-307.5-70.2
						c-51.2-11.8-102.4-23.1-153.7-33.7c-25.7-5-51.3-10.1-77-14l-9.8-1.6c-3.7-0.6-7.5-1.4-11.1-2.6c-7.3-2.2-14.2-5.4-20.3-10
						C5125.9,1055.2,5117.5,1040.9,5118.2,1026.1z"/>
				</g>
			</g>
		</g>
		<g>
			<g>
				<g>
					<path class="st2" d="M6464.5,1722.7c-7.1,0-13.4-5.2-14.6-12.4c-1.3-8.1,4.2-15.7,12.2-17c16.9-2.7,28.6-9.9,35.6-21.9
						c30.9-52.6-19.5-191.5-72.8-338.4c-5.2-14.4-10.5-28.9-15.8-43.5c-2.8-7.7,1.2-16.2,8.9-18.9c7.7-2.8,16.2,1.2,18.9,8.9
						c5.3,14.6,10.5,29.1,15.7,43.5c58.2,160.4,108.5,298.9,70.5,363.5c-11.6,19.8-30.6,32-56.4,36.2
						C6466,1722.6,6465.2,1722.7,6464.5,1722.7z"/>
				</g>
			</g>
		</g>
		<g>
			<g>
				<g>
					<path class="st2" d="M5202.8,1093.8c42.4,40,83,81.6,122.8,123.8c10,10.5,19.8,21.3,29.5,32l28.6,32.2
						c8.5,9.1,19.3,16.2,31,20.3c5.9,2.2,11.7,3.2,19.2,4.6l21.4,4.1l341.8,65.6l341.7,66.2l21.4,4.1l10.7,2.1
						c3.4,0.7,5.9,1.1,9,1.2c11.7,0.7,23.7-2.3,33.8-8.5l8.9-5.8l9.4-5.9l18.4-11.3c12-7.5,23.6-15.5,35-24
						c45.5-34,86.6-74.8,129-114.3l0.2-0.2c5.1-4.8,13.1-4.5,17.9,0.6c4.8,5.1,4.5,13.1-0.6,17.9c-42.2,39.8-83.4,81.2-130.8,117
						c-11.8,8.9-24.1,17.5-36.6,25.4l-18.6,11.6l-9,5.7l-9.3,6.1c-14.6,9-32,13.6-49.3,12.5c-4.2-0.2-8.9-0.9-12.6-1.6l-10.7-2.1
						l-21.4-4.1l-341.7-66.2l-341.6-66.8l-21.3-4.2c-6.7-1.3-15.3-2.8-23-5.8c-15.5-5.6-29.7-15-40.9-27.1c-3-3.2-5-5.7-7.4-8.5
						l-7.1-8.2c-4.7-5.5-9.5-11-14.1-16.5c-9.3-11.1-18.6-22.2-27.7-33.5C5272.3,1187.1,5236.6,1141.2,5202.8,1093.8z"/>
				</g>
			</g>
		</g>
		<g>
			<g>
				<g>
					<polygon class="st2" points="5360.2,1273.2 5264.1,1349.5 5342.5,1255 					"/>
				</g>
			</g>
		</g>
		<g>
			<g>
				<g>
					<path class="st2" d="M6262.8,1420.6c22.4,14.5,44.7,29.5,66.7,44.9c11,7.7,22,15.5,32.8,23.5c10.9,8,21.7,16.1,32.2,24.6
						c21.2,16.9,41.9,34.7,60.7,55.2c9.3,10.2,18.3,21.3,24.3,34.5c3,6.5,5.2,13.7,5.9,21.1c0.7,7.3-0.3,15-4,21.1
						c-0.9-14-7.5-24.4-15.1-34.3c-7.6-9.9-16.5-19.1-25.7-28.1c-18.8-17.8-39.9-33.7-61.3-49.4c-21.4-15.5-43.4-30.6-65.4-45.8
						s-44-30.4-65.6-46.4c-5.6-4.2-6.8-12.1-2.6-17.7C6249.7,1418.2,6257.2,1417,6262.8,1420.6z"/>
				</g>
			</g>
		</g>
	</g>
	<g>
		<g>
			<g>
				<path class="st2" d="M5604.9-556.8c-3.6,8-6.4,15.9-6.9,24.5c-0.5,8.5,0.6,17.3,3.5,25.5s7.1,16.1,13,22.6s12.9,11.9,20.6,16
					l5.9,2.8l6.2,2.1c2,0.8,4.3,1,6.4,1.5l3.2,0.7l3.9,0.6l31.1,4.7l62.3,9.4l124.6,18.7c41.5,6.2,83.1,12.3,124.5,19.1l15.5,2.5
					c4.5,0.6,8.2,1,12.4,0.7c8.1-0.3,16.1-2.6,23.3-6.5c7.3-3.8,13.3-9.5,18.4-15.9c2.3-3.4,4.6-6.8,6.2-10.6
					c0.8-1.6,1.9-4.5,2.8-6.8l2.9-7.3c15.5-39,31.7-77.8,47.9-116.5l49.6-115.9c16.5-38.6,33.1-77.3,51.9-115
					c-10.7,40.9-24.4,80.6-38.9,120L6152-561.5l-44.1,118c-1.9,5-3.5,9.6-5.7,15c-2.1,5.6-5.3,10.8-8.6,15.8
					c-7,9.7-16.1,18.1-26.6,23.9c-10.5,5.9-22.3,9.4-34.4,10c-6,0.5-12.2-0.1-17.9-0.8l-15.6-2.3L5749.9-419l-62.3-9.2l-31.2-4.6
					l-3.9-0.6l-4.5-0.9c-2.9-0.7-6-1-8.9-2.1l-8.7-2.9l-8.3-3.9c-21.7-11.2-39.2-30.5-47.5-53.6c-4.2-11.5-6.5-23.7-6.2-36.1
					c0.3-12.3,3.2-24.6,7.5-35.7l0.1-0.3c3.1-8.1,12.2-12.1,20.3-8.9c8.1,3.1,12.1,12.2,8.9,20.3
					C5605.2-557.3,5605.1-557,5604.9-556.8z"/>
			</g>
		</g>
	</g>
	<g>
		<g>
			<g>
				<path class="st2" d="M6077.1-401.8l62,115.4l-87.6-97.4c-5.8-6.5-5.3-16.5,1.2-22.3s16.5-5.3,22.3,1.2
					C6075.8-404,6076.6-402.9,6077.1-401.8z"/>
			</g>
		</g>
	</g>
	<g>
		<g>
			<g>
				<path class="st9" d="M6998.1-347.6"/>
			</g>
		</g>
	</g>
	<g>
		<g>
			<g>
				<path class="st2" d="M6820.3,163.6l149.4-485.9l-116.8,494.8c-2.1,9.1-11.3,14.7-20.4,12.6c-9.1-2.1-14.7-11.3-12.6-20.4
					C6820.1,164.3,6820.2,163.9,6820.3,163.6z"/>
			</g>
		</g>
	</g>
	<g>
		<g>
			<g>
				<path class="st2" d="M5542-362.5c40.8-10.2,78.8-7.2,116.3-4.1c37.5,3.7,74.4,9.4,110.9,16.1c36.6,6.7,72.9,14.2,109,21.8
					l54.2,11.4l13.5,2.8c4.2,0.9,9.9,2.1,14.8,3.7c10,3.2,19.8,7.8,28.5,14c17.4,12.8,30,30.6,36.7,50.3c6.8,19.7,7.8,40.1,6.5,59.5
					c-1.6,19.4-5.3,38.4-11.2,56.7c-2.9,9.1-6.3,18.2-9.8,26.7l-10.3,25.7l-41.4,102.8c-7,17.1-14.2,34.1-22,50.9
					c-7.7,16.8-15.8,33.5-24.9,49.8c4.1-18.2,9.2-36,14.7-53.7c5.4-17.7,11.5-35.2,17.7-52.6l38-104.1l9.5-26c3.2-8.7,6-17,8.5-25.6
					c4.9-17,7.7-34.6,8.6-52.1c0.7-17.3-1-34.6-6.9-49.7c-2.9-7.6-6.8-14.6-11.7-20.9c-4.9-6.2-10.7-11.9-17-16.1
					c-6.4-4.3-13.6-7.6-21.2-9.8c-4-1.2-7.3-1.8-12.2-2.7l-13.6-2.6l-54.5-10.2c-36.3-6.8-72.5-13.4-108.7-19.3
					c-36.2-5.8-72.5-11.2-108.5-14.2l-13.5-1.1l-13.4-0.6c-9-0.6-17.8-0.3-26.7-0.5c-17.5,0.5-35.1,1.7-50.4,5.9l-0.8,0.2
					c-9,2.5-18.3-2.8-20.8-11.8s2.8-18.3,11.8-20.8C5541.7-362.4,5541.9-362.5,5542-362.5z"/>
			</g>
		</g>
	</g>
	<g>
		<g>
			<g>
				<path class="st2" d="M5970.4-306.9c49.5,12,94,35.6,132.8,64.8c-43-22.4-89.6-37.5-136.4-40.9h-0.1c-6.7-0.5-11.7-6.3-11.3-13
					c0.5-6.7,6.3-11.7,13-11.3C5969-307.1,5969.7-307,5970.4-306.9z"/>
			</g>
		</g>
	</g>
	<g>
		<g>
			<g>
				<g>
					<path class="st2" d="M6240.1-445.8c-0.4,6.2-2.6,11.9-3,18.1c-0.4,6-0.5,12.2,0,18.2c1.1,12.5,5.6,23.6,14.7,32.5
						c16.3,16.1,40.4,21.4,61.8,27.1c54,14.4,108.9,25.3,164.1,33.9c13.7,2.1,27.5,4.2,41.2,6.1c6.9,1,13.8,2.2,20.7,2.7
						c6.9,0.5,13.6,0.1,20.6,1.1c28.2,3.7,55.8,10.2,83.8,14.7c27.4,4.4,54.8,9,82.1,14c25.8,4.7,51.6,11.7,77.7,14.8
						c25.4,3,49.3-4.3,59.5-29.6c2.6-6.5,2.9-13.9,3.8-20.8c1-8.2,1.9-16.4,2.9-24.5c2.1-17,7.9-33.5,10.4-50.5
						c0.2-1.1-1.4-2.1-2-0.8c-5,11.7-8.8,23.7-12.8,35.8c-4.4,13.6-11,26.4-16.8,39.4c-3.8,8.5-6.7,20.2-14.8,25.7
						c-7.4,5.1-17.5,4.9-26.1,4.3c-10.6-0.8-20.9-3.4-31.3-5.4c-12.7-2.5-25.4-4.8-38.2-7.1c-26-4.6-52-8.8-78.1-12.8
						c-26.2-4-52.6-6.4-78.8-10c-6-0.8-11.9-1.9-17.8-2.9c-7-1.2-13.2-3.4-20-5.1c-12.4-3.2-25.5-4.7-38.1-7
						c-51.7-9.4-103.4-19.3-154.4-32.3c-14.3-3.6-28.6-7.5-42.8-11.6c-10.5-3.1-21.2-6-30.7-11.6c-8.7-5.1-14-12-15.9-22
						c-1.2-6.2-0.9-12.6-1.6-18.9c-0.8-6.6-4.1-13.1-7.4-18.8C6249.2-455.4,6240.5-452.3,6240.1-445.8L6240.1-445.8z"/>
				</g>
			</g>
		</g>
	</g>
	<g>
		<g>
			<g>
				<g>
					<path class="st2" d="M6247.9-225.7c8.7-1,17.3-2.2,25.6-4.9c9.3-3,19.2-5.3,28.9-6.5c18.2-2.4,37.2-1.7,55.4,0.1
						c19.5,1.8,38.9,5.7,58.1,9.3c11.4,2.1,22.8,3.7,34.3,5.7c12.4,2.2,24.7,4.3,37.1,6.5c45.7,8,91.5,14.8,137.2,22.8
						c23.5,4.1,47,8.2,70.5,12.4c20.9,3.8,42,8.2,61.6,16.7c20.3,8.8,38.5,21.5,55.8,35.1c17,13.4,34.2,30.1,54.9,37.6
						c1.3,0.5,3-1.1,2.4-2.4c-7.6-18.2-22.8-33.4-37.5-46.2c-15.5-13.5-32.5-25.6-50.7-35.1c-40.9-21.6-88-26.7-133-34.8
						c-47.9-8.6-95.6-18.4-143.5-27.2c-11.9-2.2-23.7-4.3-35.6-6.4c-12.2-2.2-25.2-3.4-37-6.9c-10.8-3.2-22.5-3.8-33.5-5.9
						c-10.1-2-20.2-3.6-30.4-4.8c-22.5-2.7-44.6-4.3-67.2-1.4c-22.1,2.9-45.4,8.9-57.6,29.2C6242.1-230.1,6244.3-225.3,6247.9-225.7
						L6247.9-225.7z"/>
				</g>
			</g>
		</g>
	</g>
	<g>
		<g>
			<g>
				<g>
					<path class="st2" d="M6817.8-277.6c-7,8,0.2,24.2,2.7,33.1c3.3,12.3,7.3,24.5,11,36.7c3.7,12.3,7.5,24.4,12.2,36.3
						c4.3,11.1,8.2,22.8,16.1,31.9c0.9,1.1,2.4,0.1,2.5-1.1c1.6-12.5-1.9-25.3-4.5-37.5c-2.6-12.1-6.1-23.8-9.5-35.7
						c-3.5-11.8-6.7-23.7-10.6-35.4c-1.9-5.9-3.8-11.7-6.1-17.5c-2-5.1-3.9-10.4-9.7-12C6820.5-279,6818.8-278.7,6817.8-277.6
						L6817.8-277.6z"/>
				</g>
			</g>
		</g>
	</g>
	<g>
		<g>
			<g>
				<g>
					<path class="st2" d="M5425.8,16.5c-16.8,14.3-18.5,43.5-5.4,60.9c8.8,11.7,22.4,16.3,36.3,19.2c17,3.5,34.1,6.5,51.2,9.9
						c69.4,13.6,138.9,28,208.9,38.7c39,6,78.4,9.8,117.9,7.5c3.6-0.2,7.7-1.9,9.4-5.4c26.8-56.2,50.3-114.1,72.7-172.2
						c11.1-28.9,21.8-57.9,31.6-87.3c8.8-26.3,21.9-56,19.2-84.3c-2.4-25.3-19.6-42.3-42.1-52c-26.1-11.3-55.2-16.8-82.7-23.1
						c-61.1-14-123-24.2-185.3-30.7c-32.7-3.4-67.7-6.6-99.1,5.6c-24.9,9.7-46.7,27.2-51.6,54.6c-0.9,4.8,6,8.6,8.5,3.6
						c9.6-19.4,28.2-35.6,48.3-43.3c25.9-9.9,54.4-8.5,81.5-6.1c58.6,5.3,116.8,14.8,174.3,27.3c27.4,6,55,12.3,81.9,20.4
						c20.5,6.1,43.3,15.9,48.3,39.1c2.7,12.7-0.3,26-3.9,38.3c-3.8,13.2-8.5,26.2-13,39.3c-9.4,27.1-18.9,54.1-29.1,80.9
						c-23.2,61.1-50.1,120.3-78.3,179.1c3.1-1.8,6.3-3.6,9.4-5.4c-64.2,3.6-127.4-9.1-190.1-20.8c-31.9-6-63.8-11.9-95.8-17.5
						c-30.7-5.4-62.2-9.9-92.5-17.1c-11.7-2.8-24.1-8.8-29-20.7c-4.4-10.6-1.4-24.4,5.2-33.3C5435.3,17.6,5429.1,13.7,5425.8,16.5
						L5425.8,16.5z"/>
				</g>
			</g>
		</g>
	</g>
	<g>
		<g>
			<g>
				<g>
					<path class="st2" d="M5825.8,135.7c2.8,7.9,5.9,15.7,8.7,23.6c3.2,8.9,6.2,18,9.7,26.8c3.6,9.1,7.2,18.1,10.8,27.2
						c3.4,8.5,6.4,21.5,15,26.2c4.2,2.3,9.2,0.2,10.6-4.3c2.9-9.6-4.3-21.1-7.9-29.8c-3.9-9.3-7.8-18.6-11.8-27.9
						c-6.8-16.2-14.6-36.3-30.5-45.3C5828.1,131,5824.8,133.1,5825.8,135.7L5825.8,135.7z"/>
				</g>
			</g>
		</g>
	</g>
	<g>
		<g>
			<g>
				<g>
					<path class="st2" d="M5750.7-820.1c-5.8,11-11.7,22-17,33.2c-5.1,10.7-9,22.1-13.3,33.2c-9.2,23.4-17,47.3-25.8,70.8
						c-8.7,23.1-17.7,46.1-26.6,69.1c-4.6,11.7-9.1,23.5-13.7,35.2c-4.1,10.6-10.1,21.8-11.3,33.2c-1.9,18.3,13.9,30.2,29.6,35.3
						c21.4,6.9,44.4,10.3,66.4,14.8c47.7,9.8,95.6,18.3,143.8,25.4c23.8,3.5,47.6,6.8,71.4,10.4c12.1,1.8,24.3,3.4,36.5,4.7
						c10.6,1.2,21.9,3.5,32.3,0.2c19.4-6.2,31.8-29.8,40.6-46.7c10.3-19.7,18.1-40.5,26.5-61.1c18.6-45.7,38-91.1,57.9-136.2
						c5-11.5,10.1-22.9,15.1-34.4c4.6-10.5,11.3-21.7,12.3-33.3c1.7-18.2-13.3-29.3-29.3-33.5c-9.1-2.4-18.6-2.8-27.9-3.4
						c-11.9-0.8-23.7-1.7-35.6-2.7c-24.7-2.1-49.3-4.9-73.8-7.9c-24.2-3-48.3-6.4-72.4-9.6c-12.4-1.7-24.7-3.3-37.1-5.1
						c-11.6-1.6-23.1-2.3-34.8-3.5c-12.5-1.2-24.1-2.9-36.7-2.6c-4.3,0.1-4.9,5.9-1,7.3c5.4,1.9,10.7,3.9,16.3,5.1
						c5.6,1.1,11.2,1.9,16.8,3.1c11.2,2.4,22.1,5.2,33.4,7.1c22.5,3.7,45.1,7.2,67.7,10.4c45.2,6.3,90.4,11.8,135.8,16.1
						c10.4,1,20.9,1.9,31.3,2.7c6.7,0.5,13.7,1.3,19.9,4c7.1,3.1,9.7,7.5,7.7,15.2c-2.9,10.7-8.6,21.3-12.9,31.5
						c-17.9,42.9-35.4,85.9-54,128.5c-8.8,20.2-18,40.3-27.1,60.4c-8.2,18-16.6,35.9-28.2,52.1c-4.7,6.6-10.5,15.5-19.2,16.7
						c-10.2,1.4-21.8-1.3-32-2.3c-22.5-2.2-45.1-3.7-67.6-6.7c-44.2-5.8-88.3-12.8-132.1-20.9c-22.3-4.1-44.6-8.6-66.8-13.3
						c-10.8-2.3-21.6-4.5-32.3-7.1c-6.8-1.7-15-3.3-20.5-7.9c-9-7.6-2.6-19.4,0.9-28.3c4.9-12.6,9.7-25.3,14.6-37.9
						c9-23.5,17.9-47,27.2-70.4c9.7-24.3,20.4-48.3,29.9-72.7c4.5-11.7,9.4-23.4,13.4-35.2c4.3-12.8,7.3-26,10.7-39
						C5761.2-821.6,5753.4-825.3,5750.7-820.1L5750.7-820.1z"/>
				</g>
			</g>
		</g>
	</g>
	<g>
		<g>
			<g>
				<g>
					<path class="st2" d="M6470-757.2c-7.7-9.5-20-11.1-31.4-7.6c-12.8,3.9-22,13.7-28.2,25.3c-7.1,13.4-10.6,28.3-16,42.4
						c-6.2,16.1-12.6,32.1-18.6,48.3c-11.9,32.3-24.1,64.4-34.3,97.3c-5,15.9-9.6,32-13.5,48.2c-2,8.3-3.9,16.7-5.6,25.1
						c-1.5,7.7-3.7,15.9-3.4,23.7c0.8,17.6,14.1,23.6,28.6,29.1c15.9,6,31.8,12,47.9,17.2c33.1,10.8,67.4,18.3,101.4,25.3
						c34.7,7.2,69.7,12.5,104.6,18.8c35.7,6.4,71.5,12,107.5,16.9c19.7,2.7,39.4,5.2,59.2,6.7c16.4,1.3,32.7,1.1,44.3-12.3
						c5.5-6.4,8.8-15.5,12.9-22.9c4.5-7.9,9.6-15.4,14.3-23.2c10.1-16.8,18-35.1,25.5-53.1c3-7.3-9.8-12.8-12.9-5.4
						c-6,14.2-12.6,28.1-19.6,41.9c-7,13.8-13,28-22,40.7c-3.4,4.8-8.3,11.1-13.3,14.5c-5.7,3.8-13.7,2.8-20.2,2.4
						c-15.9-1-31.8-2.7-47.6-4.4c-32.4-3.4-64.6-8.5-96.8-14.2c-31.6-5.6-62.7-12.6-94.1-19c-31-6.3-62-13-92.7-20.9
						c-30-7.8-60.4-16-89.5-26.8c-4.6-1.7-13.2-3.4-16.5-7.4c-3.8-4.6-0.3-14.7,0.7-19.8c2.9-15,6.5-30,10.5-44.8
						c8-29.6,17.9-58.8,27.9-87.8c5.6-16.3,11.4-32.5,17-48.7c5.7-16.3,10.1-32.8,15.2-49.2c4.5-14.3,7.9-30.5,17.8-42.2
						c8.6-10.2,23.8-15.4,36-8.3C6469.3-749.1,6472.5-754.1,6470-757.2L6470-757.2z"/>
				</g>
			</g>
		</g>
	</g>
	<g>
		<g>
			<g>
				<g>
					<path class="st2" d="M6206.2,102.8c-17.1-1.5-12.5-24.7-8.2-34.9c5.9-13.8,11.7-27.6,17.1-41.6c11-28.7,21.4-57.6,31.5-86.6
						c10-28.8,19.5-57.8,29.7-86.5c3.8-10.8,8.3-22.8,18.4-29.1c9.9-6.1,22.6-5.8,33.7-5c29.2,2,58.5,6.1,87.5,9.9
						c30,3.9,59.8,8.3,89.6,13.2c59.5,9.8,118.6,21.7,177.2,35.4c7.8,1.8,15.9,3.2,23.5,5.7c5.9,2,7.3,5.7,6.9,11.8
						c-0.4,6.5-2.8,12.8-4.9,18.9c-2.7,7.9-5.4,15.8-8.3,23.7c-5.5,15.3-11.5,30.5-17.8,45.5c-3.2,7.7-6.8,15.4-9.3,23.3
						c-1.2,3.8-2.2,7.6-2.3,11.6c-0.2,5.4-0.8,9.1-2.6,14.2c-1.5,4.2,5.1,7,7.2,3.1c4.2-7.7,10.8-12.5,15.1-20.1
						c4.1-7.1,7.1-15.2,10.1-22.8c6.3-15.5,12-31.3,17.6-47c5.1-14.2,11.5-28.8,13.9-43.7c2-12.6-0.2-26.6-12.1-33.7
						c-5.5-3.3-12-4.5-18.1-6c-8.7-2.1-17.4-4.1-26.1-6.1c-16.5-3.8-33.1-7.4-49.7-10.9c-32.7-6.9-65.6-13.1-98.5-18.8
						c-33.3-5.7-66.8-10.8-100.3-15.3c-32.7-4.4-65.7-9.1-98.7-11.3c-13.4-0.9-27.4-0.3-39.7,5.6c-12.1,5.8-20.4,16.6-25.8,28.6
						c-6.5,14.5-11,29.8-16.4,44.6c-5.9,16.3-11.9,32.5-17.6,48.8c-12.8,36-26.6,72.1-36.6,109.1c-4.4,16.2-12.7,34.7-10.7,51.8
						c1.5,12.9,10.9,24.5,24.6,24.5C6212.7,112.7,6212.5,103.3,6206.2,102.8L6206.2,102.8z"/>
				</g>
			</g>
		</g>
	</g>
	<g class="st7">
		<g>
			<g>
				<g>
					<path class="st8" d="M5435.7,42.8c4.5-4.8,6.2-10.6,8.4-16.7c3-8,5.9-16,8.9-23.9c5.5-14.6,11-29.2,16.4-43.8
						c11-29.7,22.3-59.3,33.9-88.8c11.1-28.4,22-57.1,34.3-85.1c5-11.4,10.8-22.9,19.4-31.9c9.6-10,22-14.7,35.5-16.8
						c16.7-2.7,34.5-2.3,51.4-1.4c8.3,0.4,16.6,1.1,24.8,2.1c8.8,1.1,16.7,3.9,25.1-0.2c3.8-1.9,3.8-7.2,1.3-10
						c-5.6-6.1-13.1-6.3-20.9-7.3c-8.2-1.1-16.5-2-24.8-2.3c-16-0.7-31.9,0-47.8,2c-14,1.8-28.1,4.3-40.4,11.7
						c-11.1,6.6-19.6,16.6-26.2,27.6c-6.9,11.6-11.7,24.3-16.7,36.8c-6.3,15.8-12.5,31.6-18.6,47.5c-11.9,30.8-23.5,61.8-34.8,92.9
						c-6.4,17.8-12.9,35.5-18.8,53.4c-2.8,8.5-5.7,17-8.5,25.5s-7.4,17.7-6.6,26.8C5431.3,43.1,5434,44.7,5435.7,42.8L5435.7,42.8z"
						/>
				</g>
			</g>
		</g>
	</g>
	<g class="st7">
		<g>
			<g>
				<g>
					<path class="st8" d="M5706-256.8c0.1,0.1,0.2,0.2,0.3,0.4c0.1,0.1,0.1,0.1,0.2,0.2c0.2,0.3,0.5,0.5,0.8,0.7
						c0.8,0.7,1.6,1.2,2.7,1.4c0.7,0.1,1.4,0.2,2.1,0.3c0.7,0,1.4-0.1,2.1-0.3c0.6-0.3,1.2-0.5,1.9-0.8h0.1c0.1,0,0.2-0.1,0.3-0.1
						c0.5-0.4,1-0.8,1.5-1.1c0.7-0.7,1.2-1.4,1.5-2.3c0.3-0.6,0.5-1.2,0.5-1.8c0.2-1,0.2-1.9-0.1-2.9c0-0.1-0.1-0.2-0.1-0.3
						c-0.2-0.7-0.4-1.3-0.8-2c-0.2-0.3-0.4-0.6-0.6-0.9c-0.6-0.9-1.3-1.5-2.2-2c-0.6-0.3-1.2-0.5-1.9-0.8c-0.7-0.1-1.4-0.2-2.2-0.3
						c-0.1,0-0.2,0-0.2,0c-0.2,0-0.3,0-0.5,0c-0.7,0.1-1.3,0.2-2,0.3c-0.6,0.3-1.2,0.5-1.8,0.8c-0.5,0.4-1,0.8-1.5,1.2
						c-0.7,0.7-1.2,1.5-1.6,2.4c-0.3,0.6-0.5,1.2-0.5,1.9c-0.2,0.7-0.2,1.3,0,2c0,0.7,0.2,1.3,0.5,1.9
						C5704.7-258.3,5705.2-257.5,5706-256.8L5706-256.8z"/>
				</g>
			</g>
		</g>
	</g>
	<g class="st7">
		<g>
			<g>
				<g>
					<path class="st8" d="M5703.5-618.3c20.1-44.3,40.2-88.6,59.5-133.2c4.3-10.1,8.4-20.3,13.3-30.2c4.4-8.8,9.4-17.7,19.3-21
						c9.7-3.2,20.7-1.3,30.5-0.2c12.2,1.4,24.4,2.7,36.7,4.1c13.2,1.5,26.3,2.9,39.5,4.4c12.6,1.4,28.4,5.6,40.8,1.3
						c4-1.4,4.9-6.6,1.2-9c-10.2-6.4-24.6-6.1-36.3-7.5c-12.7-1.4-25.4-2.9-38.1-4.3s-25.4-2.9-38.1-4.3c-11.5-1.3-23.1-3.1-34.6-1
						c-22,4-31.9,23.2-39.6,42c-9.9,24.3-19.8,48.7-28.8,73.4c-10.1,27.8-20.5,55.5-30.4,83.4
						C5697.3-617.5,5702.2-615.4,5703.5-618.3L5703.5-618.3z"/>
				</g>
			</g>
		</g>
	</g>
	<g class="st7">
		<g>
			<g>
				<g>
					<path class="st8" d="M5958.3-793c-0.2,0.6-0.3,1.3-0.3,2c0,1,0.2,2,0.6,2.8c0.1,0.3,0.3,0.6,0.4,0.9c-0.2-0.6-0.5-1.2-0.7-1.8
						l0,0c0.3,1.2,1,2.3,1.9,3.2c0.9,0.9,2,1.5,3.2,1.9c2.5,0.7,5.3,0,7.1-1.9l0,0c0.4-0.4,2.4-3.9,1.2-1.5c0.2-0.6,0.5-1.2,0.7-1.8
						c0.2-0.7,0.3-1.3,0.3-2c0-1-0.2-2-0.6-2.8c-0.3-0.9-0.8-1.7-1.5-2.4c-0.5-0.4-1-0.8-1.5-1.2c-0.8-0.5-1.8-0.8-2.7-0.9
						c-0.7-0.2-1.3-0.2-2,0c-1,0-1.9,0.3-2.7,0.9c-0.5,0.4-1,0.8-1.5,1.2C5959.3-795.4,5958.6-794.3,5958.3-793L5958.3-793z"/>
				</g>
			</g>
		</g>
	</g>
	<g class="st7">
		<g>
			<g>
				<g>
					<path class="st8" d="M6359.9-503c4.4-3.3,5.5-8.4,7.3-13.4c2.6-7.1,5.3-14.2,7.7-21.4c4.6-13.5,10.9-26.3,15.5-39.8
						c9.4-27.2,18.8-54.5,28.8-81.5c5.1-13.7,10.2-27.4,15.5-41.1c4.6-11.8,9.3-22.6,21.9-27.4c11.5-4.4,24.7-4.8,36.8-4.4
						c13.8,0.5,27,5.1,40.6,1.9c2.4-0.6,2.8-3.4,1.3-5.1c-7.6-8.7-17.5-10.8-28.5-12.2c-11.6-1.5-23.4-1.7-35.1-0.4
						c-20.3,2.3-38.1,10-47.2,29.4c-10.1,21.4-17.4,44.6-25.4,66.8c-8.5,23.5-16.8,47.2-24.1,71.1c-4,13-6.3,26.7-10,39.8
						c-1.8,6.4-3.3,12.8-4.9,19.2c-1.4,5.6-4.1,11.9-1.9,17.6C6358.6-503.1,6359.3-502.6,6359.9-503L6359.9-503z"/>
				</g>
			</g>
		</g>
	</g>
	<g class="st7">
		<g>
			<g>
				<g>
					<path class="st8" d="M6554.6-723.7c9.1,0,9.1-14.1,0-14.1C6545.6-737.7,6545.6-723.7,6554.6-723.7L6554.6-723.7z"/>
				</g>
			</g>
		</g>
	</g>
	<g class="st7">
		<g>
			<g>
				<g>
					<path class="st8" d="M6163.7,24.4c23.5-52.8,39.7-108.5,62.1-161.7c9.6-22.8,22.4-44.8,41.9-60.5
						c21.3-17.2,46.6-19.9,73.1-18.6c32.7,1.6,64.9,6.6,97.7,5c1.4-0.1,2.3-2.2,0.8-2.9c-27.8-12.9-57.1-16.8-87.4-19
						c-28.7-2.1-57.7-2.1-83.1,13.3c-48.1,29.3-64.2,87.6-79.5,138.1c-10.4,34.7-22.4,68.8-30.9,104
						C6157.7,25.2,6162.3,27.5,6163.7,24.4L6163.7,24.4z"/>
				</g>
			</g>
		</g>
	</g>
	<g class="st7">
		<g>
			<g>
				<g>
					<path class="st8" d="M6452.1-206.5c0.2,0.9,0.3,1.5,0.9,2.4c1.2,2.1,3.5,3.4,5.9,3.4c1.2,0,2.4-0.3,3.4-0.9
						c1-0.6,1.8-1.4,2.4-2.4c0.2-0.3,0.3-0.6,0.4-0.9c0.2-0.3,0.3-0.6,0.4-0.9c0-0.1,0-0.1,0-0.2c0-0.2,0.1-0.3,0.1-0.5
						c0.3-1.2,0.3-2.5,0-3.7s-0.9-2.2-1.8-3.1c-0.5-0.4-0.9-0.7-1.4-1.1c-1.1-0.6-2.3-0.9-3.5-1c-1,0-1.9,0.2-2.7,0.6
						c-0.9,0.3-1.6,0.8-2.2,1.4c-0.9,0.9-1.5,1.9-1.8,3.1C6451.8-208.9,6451.8-207.7,6452.1-206.5L6452.1-206.5z"/>
				</g>
			</g>
		</g>
	</g>
	<g>
		<g>
			<g>
				<g>
					<path class="st0" d="M7338.9-206.8c-5.3,12-17.3,19.8-30.5,19.8h-68.9c-4.8,0-9.5-1-13.7-2.9c-6.5-2.8-12.1-7.6-15.9-13.9
						c-35.7-59.7-87.8-94-104.1-133.6c-5.8-14.2-3.6-30.5,5.5-42.9c20.8-28.4,48.2-51.4,82.1-69c10.5-5.5,23-6,33.7-0.8
						c19.7,9.6,37.7,20.5,54.1,32.6c15.7,11.7,29.9,24.4,42.8,38.2c19.7,21.1,31.5,48.4,32.8,77.3
						C7358.3-269.3,7352.4-237.6,7338.9-206.8z"/>
				</g>
			</g>
		</g>
		<g>
			<g>
				<g>
					<path class="st1" d="M7338.9-206.8c-5.3,12-17.3,19.8-30.5,19.8h-68.9c-4.8,0-9.5-1-13.7-2.9c2-5.3,4.6-10.5,6.8-15.5
						c16.1-36.4,15.6-77.6,14.9-117.4c-0.3-17.5-0.8-35.8-8.9-51.3c-3.6-7-8.6-13.1-12-20.2c-3.5-7.1-5.3-15.5-2.1-22.7
						c4.1-9.3,15.7-13.5,25.8-12.2c10.1,1.3,19.2,6.8,27.9,12.2l3.2-0.5c15.7,11.7,29.9,24.4,42.8,38.2
						c19.7,21.1,31.5,48.4,32.8,77.3C7358.3-269.3,7352.4-237.6,7338.9-206.8z"/>
				</g>
			</g>
		</g>
		<g>
			<g>
				<g>
					<path class="st2" d="M7308.4-172.3h-68.9c-17.3,0-33.5-9.2-42.3-24c-16.9-28.3-38.2-51.2-57-71.4
						c-20.8-22.4-38.8-41.7-48.1-64.2c-7.7-18.7-4.9-40.6,7.2-57.3c22-30.1,51.4-54.8,87.2-73.4c14.8-7.7,32.3-8,46.9-1
						c38.7,18.8,72.8,43.7,101.2,74c22.3,23.8,35.4,54.6,36.8,86.7c1.6,35.1-4.9,69.3-19.2,101.9
						C7344.8-183.5,7327.5-172.3,7308.4-172.3z M7211.2-438.9c-3.7,0-7.5,0.9-11,2.7c-31.8,16.5-57.7,38.2-77,64.6
						c-6.1,8.4-7.6,19.3-3.8,28.5l0,0c7.2,17.5,23.5,35,42.4,55.3c19.8,21.3,42.2,45.4,60.7,76.4c3.5,5.9,10,9.6,16.9,9.6h68.9
						c7.3,0,14-4.3,16.9-10.9c12.5-28.3,18.1-58.1,16.7-88.6c-1.1-25.1-11.4-49.2-28.9-67.8c-26-27.7-57.1-50.4-92.6-67.6
						C7217.7-438.2,7214.5-438.9,7211.2-438.9z"/>
				</g>
			</g>
		</g>
		<g>
			<g>
				<g>
					<g>
						<path class="st2" d="M7147.5-364.2c4.1-2,6.6-5.8,9.7-9c3.8-4,7.7-7.8,12.1-11.1c7.7-5.8,17.8-10.2,27.6-10.6
							c20.9-1,33.4,16.5,38.4,34.8c5.6,20.8,6.4,43.5,6.4,64.9c-0.1,22.6,1.2,44.8-0.5,67.4c-0.2,2.5,3.5,2.8,4.2,0.6
							c3.9-13.1,6.6-26.6,9.9-39.9c3-12.3,2.7-25.1,2.4-37.7c-0.6-24.9-1.7-53.1-13-75.8c-9.5-19.1-29-32.9-50.9-28.8
							c-11.4,2.1-20.1,8.2-28.6,15.8c-4.4,3.9-8.3,8.4-12.1,12.8c-3.5,4.1-8,8.5-9.4,13.8C7143-364.8,7145.5-363.2,7147.5-364.2
							L7147.5-364.2z"/>
					</g>
				</g>
			</g>
		</g>
	</g>
	<g>
		<g>
			<g>
				<g>
					<path class="st0" d="M7181.1-739.8c-23.9,62.3-38.4,136.7-47.8,218c-0.6,5.5-3,10.7-6.8,14.8c-13.2,14.2-30.6,19.1-50.5,18.6
						c-6.7-0.2-13.3-2.3-18.9-6.1c-57.3-39.6-110.9-82.4-160-129.1c-3.1-2.9-6.2-5.9-9.3-8.9c-6-5.9-9.6-13.7-10.4-22.1
						c-3-34.3-0.5-67.8,5.6-100.9l-35.1-31.6c-4.7-4.3-7.4-10.4-7.6-16.7c-0.5-22.7,1.5-43.9,6.1-63.6c3.5-14.8,13.4-27.1,27.1-33.6
						c44.1-21.1,88.9-32.7,134.3-35.5c22.9-1.4,45.6,6.3,62.7,21.5c1.4,1.2,2.7,2.4,4,3.7c33.2,31.2,68.2,84.5,103.4,141
						C7183.9-761.4,7185-750,7181.1-739.8z"/>
				</g>
			</g>
		</g>
		<g>
			<g>
				<g>
					<path class="st1" d="M7181.1-739.8c-23.9,62.3-38.4,136.7-47.8,218c-0.6,5.5-3,10.7-6.8,14.8c-13.2,14.2-30.6,19.1-50.5,18.6
						c-6.7-0.2-13.3-2.3-18.9-6.1c-57.3-39.6-110.9-82.4-160-129.1l1.3-12.1c27.7,22,69,32.5,98.3,12.7
						c15.2-10.3,24.8-27.3,29.8-44.9c5-17.7,5.8-36.2,6.6-54.5c2.2-52.1,4.4-104.2,6.7-156.4c0.4-10.7,1.5-22.8,9.8-29.6
						c6.6-5.5,16.3-5.9,24.4-3.2c0.2,0.1,0.5,0.2,0.7,0.3c33.2,31.2,68.2,84.5,103.4,141C7183.9-761.4,7185-750,7181.1-739.8z"/>
				</g>
			</g>
		</g>
		<g>
			<g>
				<g>
					<path class="st2" d="M7078.5-473.7c-1,0-1.9,0-2.9,0c-9.7-0.2-19-3.2-26.9-8.7c-63-43.4-120.6-90.4-171.2-139.6
						c-8.5-8.3-13.8-19.4-14.8-31.4c-2.7-31.4-1.3-63.1,4.4-96.6l-29-26.1c-7.7-6.9-12.2-16.9-12.5-27.4
						c-0.6-23.9,1.6-46.5,6.5-67.3l0,0c4.5-19.2,17.3-35.1,35.1-43.7c45-21.5,92-33.9,139.7-36.9c26.8-1.7,53.6,7.5,73.5,25.2
						c37.2,33,74.8,91.1,110.2,147.9c8.1,13.1,9.7,29.5,4.2,43.9c-21.4,55.8-36.7,125.9-46.9,214.3c-1,8.6-4.8,16.8-10.7,23.2
						C7122.9-481.5,7103.1-473.7,7078.5-473.7z M7013.3-922.1c-1.5,0-3,0-4.5,0.1c-43.9,2.8-87.3,14.2-128.8,34.1
						c-9.7,4.6-16.6,13.3-19.1,23.7l0,0c-4.3,18.4-6.3,38.5-5.7,59.9c0.1,2.4,1,4.6,2.7,6.1l35.1,31.6c3.8,3.5,5.6,8.6,4.6,13.7
						c-6.4,34-8.1,65.6-5.4,96.9c0.4,4.9,2.5,9.4,6,12.8c49.4,48.1,105.7,94,167.3,136.5c3.2,2.2,6.9,3.4,10.9,3.5
						c17.4,0.4,30.1-4,39.3-13.9c1.6-1.8,2.7-4,3-6.4c10.5-91,26.4-163.4,48.7-221.5c2.3-5.9,1.6-12.3-1.7-17.6
						c-32.7-52.5-70.5-111-104.7-141.4C7047.9-915.7,7030.8-922.1,7013.3-922.1z M6846.5-867.5L6846.5-867.5L6846.5-867.5z"/>
				</g>
			</g>
		</g>
		<g>
			<g>
				<g>
					<g>
						<path class="st2" d="M6902.6-848.6c7.1-8.5,14-16.2,24.9-19.7c12.7-4.1,25.8-5.4,39.1-6.1c14.8-0.7,29.7-0.8,44.4,0.3
							c4.7,0.3,10.6,0.8,14.3,4.2c4.6,4.3,4.9,12.7,5.3,18.5c0.8,13.8-1.3,27.5-2.9,41.1c-1.7,14.3-3.1,28.6-4.2,43
							c-2.1,28.3-2,56.5-2.4,84.8c-0.2,13-1.7,24.9-7.6,36.6c-1.7,3.3-2.6,6.8-5.3,9.5c-2.4,2.4-5.1,4.4-8,6.3
							c-5.5,3.6-10.8,7-15.4,11.7c-1.3,1.3-0.4,3.9,1.5,3.7c13.9-1,23.2-8.9,33.9-17c10.5-8,13.7-22.2,15.2-34.7
							c1.8-14.8,0.8-30,1-44.9c0.2-17.3,0.8-34.5,2-51.7c1.2-17.2,2.8-34.3,4.9-51.4c1.9-15.7,3.7-31.4,1.2-47.1
							c-2.1-13.3-9.4-23.4-23-26.3c-15.3-3.3-32.2-2.5-47.7-2c-16.5,0.5-35.4,0.7-50.5,8.3c-11.5,5.9-24.9,15.6-27,29.2
							C6895.8-849,6899.9-845.4,6902.6-848.6L6902.6-848.6z"/>
					</g>
				</g>
			</g>
		</g>
	</g>
</g>
<text transform="matrix(1 0 0 1 8130.832 -500.9272)" class="st10 st11">a</text>
<text transform="matrix(1 0 0 1 7371.6372 303.5113)" class="st12 st10 st13">CHOCOLATE REPUBLIC</text>
<text transform="matrix(1 0 0 1 10086.7002 975.9681)" class="st14 st10 st15">S T O R E</text>
</svg>
